<svg xmlns="http://www.w3.org/2000/svg" xmlns:xlink="http://www.w3.org/1999/xlink" width="130" zoomAndPan="magnify" viewBox="0 0 97.5 41.25" height="55" preserveAspectRatio="xMidYMid meet" version="1.0"><defs><g/><clipPath id="9de2198b49"><path d="M 2.097656 0.691406 L 45.558594 0.691406 L 45.558594 40.46875 L 2.097656 40.46875 Z M 2.097656 0.691406 " clip-rule="nonzero"/></clipPath></defs><g clip-path="url(#9de2198b49)"><path fill="#332c54" d="M 33.898438 38.308594 C 26.183594 42.507812 18.902344 40.570312 18.902344 32.171875 L 18.902344 10.066406 C 18.902344 4.894531 16.511719 2.527344 13.253906 2.851562 C 20.96875 -1.351562 28.246094 0.589844 28.246094 8.988281 L 28.246094 31.09375 C 28.246094 36.261719 30.636719 38.632812 33.898438 38.308594 Z M 11.441406 27.507812 L 11.441406 10.136719 C 11.441406 9.832031 11.410156 9.53125 11.351562 9.234375 C 11.292969 8.933594 11.203125 8.644531 11.085938 8.363281 C 10.96875 8.085938 10.824219 7.816406 10.65625 7.566406 C 10.484375 7.3125 10.289062 7.078125 10.074219 6.863281 C 9.855469 6.648438 9.621094 6.457031 9.367188 6.289062 C 9.109375 6.117188 8.839844 5.976562 8.558594 5.859375 C 8.273438 5.742188 7.984375 5.65625 7.683594 5.597656 C 7.382812 5.535156 7.078125 5.507812 6.769531 5.507812 C 6.464844 5.507812 6.160156 5.535156 5.859375 5.597656 C 5.558594 5.65625 5.265625 5.742188 4.984375 5.859375 C 4.699219 5.976562 4.429688 6.117188 4.175781 6.285156 C 3.917969 6.457031 3.683594 6.648438 3.464844 6.863281 C 3.25 7.078125 3.054688 7.3125 2.886719 7.5625 C 2.714844 7.816406 2.570312 8.082031 2.453125 8.363281 C 2.335938 8.644531 2.246094 8.933594 2.1875 9.234375 C 2.128906 9.53125 2.097656 9.832031 2.097656 10.136719 L 2.097656 28.582031 C 2.097656 36.980469 9.378906 38.917969 17.089844 34.71875 C 13.832031 35.042969 11.441406 32.675781 11.441406 27.507812 Z M 30.566406 7.042969 C 33.824219 6.722656 36.214844 9.089844 36.214844 14.257812 L 36.214844 31.628906 C 36.214844 31.929688 36.246094 32.234375 36.304688 32.53125 C 36.363281 32.828125 36.453125 33.117188 36.570312 33.398438 C 36.6875 33.679688 36.832031 33.945312 37 34.199219 C 37.171875 34.453125 37.367188 34.6875 37.582031 34.902344 C 37.800781 35.117188 38.035156 35.308594 38.289062 35.476562 C 38.546875 35.644531 38.816406 35.789062 39.097656 35.90625 C 39.382812 36.019531 39.675781 36.109375 39.976562 36.167969 C 40.277344 36.226562 40.578125 36.257812 40.886719 36.257812 C 41.191406 36.257812 41.496094 36.226562 41.796875 36.167969 C 42.097656 36.109375 42.390625 36.019531 42.675781 35.90625 C 42.957031 35.789062 43.226562 35.644531 43.480469 35.476562 C 43.738281 35.308594 43.972656 35.117188 44.191406 34.902344 C 44.40625 34.6875 44.601562 34.453125 44.769531 34.199219 C 44.941406 33.945312 45.085938 33.679688 45.203125 33.398438 C 45.320312 33.117188 45.410156 32.828125 45.46875 32.53125 C 45.527344 32.234375 45.558594 31.929688 45.558594 31.628906 L 45.558594 13.179688 C 45.558594 4.785156 38.28125 2.84375 30.566406 7.042969 Z M 30.566406 7.042969 " fill-opacity="1" fill-rule="nonzero"/></g><g fill="#332c54" fill-opacity="1"><g transform="translate(51.296527, 31.863357)"><g><path d="M 1.703125 -3.046875 C 2.148438 -3.046875 2.503906 -2.90625 2.765625 -2.625 C 3.035156 -2.34375 3.171875 -1.96875 3.171875 -1.5 C 3.171875 -1.019531 3.035156 -0.640625 2.765625 -0.359375 C 2.503906 -0.078125 2.144531 0.0625 1.6875 0.0625 C 1.238281 0.0625 0.878906 -0.078125 0.609375 -0.359375 C 0.347656 -0.640625 0.21875 -1.019531 0.21875 -1.5 C 0.21875 -1.96875 0.347656 -2.34375 0.609375 -2.625 C 0.878906 -2.90625 1.242188 -3.046875 1.703125 -3.046875 Z M 1.0625 -0.671875 C 1.21875 -0.484375 1.425781 -0.390625 1.6875 -0.390625 C 1.957031 -0.390625 2.164062 -0.484375 2.3125 -0.671875 C 2.46875 -0.867188 2.546875 -1.144531 2.546875 -1.5 C 2.546875 -1.84375 2.46875 -2.109375 2.3125 -2.296875 C 2.164062 -2.492188 1.960938 -2.59375 1.703125 -2.59375 C 1.429688 -2.59375 1.21875 -2.492188 1.0625 -2.296875 C 0.914062 -2.109375 0.84375 -1.835938 0.84375 -1.484375 C 0.84375 -1.140625 0.914062 -0.867188 1.0625 -0.671875 Z M 1.0625 -0.671875 "/></g></g></g><g fill="#332c54" fill-opacity="1"><g transform="translate(55.805215, 31.863357)"><g><path d="M 3.015625 0 L 2.1875 0 L 0.953125 -2.265625 C 0.972656 -1.992188 0.984375 -1.6875 0.984375 -1.34375 L 0.984375 0 L 0.390625 0 L 0.390625 -2.984375 L 1.171875 -2.984375 L 2.4375 -0.671875 C 2.414062 -0.941406 2.40625 -1.253906 2.40625 -1.609375 L 2.40625 -2.984375 L 3 -2.984375 Z M 3.015625 0 "/></g></g></g><g fill="#332c54" fill-opacity="1"><g transform="translate(60.292271, 31.863357)"><g><path d="M 2.546875 -0.5 L 2.546875 0 L 0.390625 0 L 0.390625 -2.984375 L 0.984375 -2.984375 L 0.984375 -0.5 Z M 2.546875 -0.5 "/></g></g></g><g fill="#332c54" fill-opacity="1"><g transform="translate(64.104375, 31.863357)"><g><path d="M 0.984375 0 L 0.390625 0 L 0.390625 -2.984375 L 0.984375 -2.984375 Z M 0.984375 0 "/></g></g></g><g fill="#332c54" fill-opacity="1"><g transform="translate(66.56658, 31.863357)"><g><path d="M 3.015625 0 L 2.1875 0 L 0.953125 -2.265625 C 0.972656 -1.992188 0.984375 -1.6875 0.984375 -1.34375 L 0.984375 0 L 0.390625 0 L 0.390625 -2.984375 L 1.171875 -2.984375 L 2.4375 -0.671875 C 2.414062 -0.941406 2.40625 -1.253906 2.40625 -1.609375 L 2.40625 -2.984375 L 3 -2.984375 Z M 3.015625 0 "/></g></g></g><g fill="#332c54" fill-opacity="1"><g transform="translate(71.053635, 31.863357)"><g><path d="M 2.546875 -0.46875 L 2.546875 0 L 0.390625 0 L 0.390625 -2.984375 L 2.5 -2.984375 L 2.5 -2.515625 L 0.984375 -2.515625 L 0.984375 -1.734375 L 2.390625 -1.734375 L 2.390625 -1.265625 L 0.984375 -1.265625 L 0.984375 -0.46875 Z M 2.546875 -0.46875 "/></g></g></g><g fill="#332c54" fill-opacity="1"><g transform="translate(74.917658, 31.863357)"><g/></g></g><g fill="#332c54" fill-opacity="1"><g transform="translate(76.955853, 31.863357)"><g><path d="M 1.375 -3.046875 C 1.71875 -3.046875 1.976562 -2.957031 2.15625 -2.78125 C 2.332031 -2.613281 2.441406 -2.390625 2.484375 -2.109375 L 1.875 -2.109375 C 1.851562 -2.265625 1.796875 -2.382812 1.703125 -2.46875 C 1.617188 -2.550781 1.503906 -2.59375 1.359375 -2.59375 C 1.234375 -2.59375 1.128906 -2.5625 1.046875 -2.5 C 0.972656 -2.445312 0.9375 -2.363281 0.9375 -2.25 C 0.9375 -2.125 0.984375 -2.023438 1.078125 -1.953125 C 1.171875 -1.878906 1.335938 -1.8125 1.578125 -1.75 C 1.898438 -1.675781 2.132812 -1.5625 2.28125 -1.40625 C 2.4375 -1.257812 2.515625 -1.066406 2.515625 -0.828125 C 2.515625 -0.554688 2.40625 -0.335938 2.1875 -0.171875 C 1.976562 -0.015625 1.722656 0.0625 1.421875 0.0625 C 1.054688 0.0625 0.765625 -0.015625 0.546875 -0.171875 C 0.328125 -0.335938 0.207031 -0.578125 0.1875 -0.890625 L 0.796875 -0.890625 C 0.828125 -0.722656 0.894531 -0.597656 1 -0.515625 C 1.113281 -0.429688 1.25 -0.390625 1.40625 -0.390625 C 1.550781 -0.390625 1.671875 -0.421875 1.765625 -0.484375 C 1.859375 -0.554688 1.90625 -0.648438 1.90625 -0.765625 C 1.90625 -0.890625 1.859375 -0.988281 1.765625 -1.0625 C 1.671875 -1.144531 1.515625 -1.210938 1.296875 -1.265625 C 0.960938 -1.347656 0.710938 -1.453125 0.546875 -1.578125 C 0.390625 -1.710938 0.3125 -1.910156 0.3125 -2.171875 C 0.3125 -2.441406 0.414062 -2.65625 0.625 -2.8125 C 0.832031 -2.96875 1.082031 -3.046875 1.375 -3.046875 Z M 1.375 -3.046875 "/></g></g></g><g fill="#332c54" fill-opacity="1"><g transform="translate(80.785267, 31.863357)"><g><path d="M 2.71875 -2.515625 L 1.703125 -2.515625 L 1.703125 0 L 1.109375 0 L 1.109375 -2.515625 L 0.09375 -2.515625 L 0.09375 -2.984375 L 2.71875 -2.984375 Z M 2.71875 -2.515625 "/></g></g></g><g fill="#332c54" fill-opacity="1"><g transform="translate(84.679581, 31.863357)"><g><path d="M 1.703125 -3.046875 C 2.148438 -3.046875 2.503906 -2.90625 2.765625 -2.625 C 3.035156 -2.34375 3.171875 -1.96875 3.171875 -1.5 C 3.171875 -1.019531 3.035156 -0.640625 2.765625 -0.359375 C 2.503906 -0.078125 2.144531 0.0625 1.6875 0.0625 C 1.238281 0.0625 0.878906 -0.078125 0.609375 -0.359375 C 0.347656 -0.640625 0.21875 -1.019531 0.21875 -1.5 C 0.21875 -1.96875 0.347656 -2.34375 0.609375 -2.625 C 0.878906 -2.90625 1.242188 -3.046875 1.703125 -3.046875 Z M 1.0625 -0.671875 C 1.21875 -0.484375 1.425781 -0.390625 1.6875 -0.390625 C 1.957031 -0.390625 2.164062 -0.484375 2.3125 -0.671875 C 2.46875 -0.867188 2.546875 -1.144531 2.546875 -1.5 C 2.546875 -1.84375 2.46875 -2.109375 2.3125 -2.296875 C 2.164062 -2.492188 1.960938 -2.59375 1.703125 -2.59375 C 1.429688 -2.59375 1.21875 -2.492188 1.0625 -2.296875 C 0.914062 -2.109375 0.84375 -1.835938 0.84375 -1.484375 C 0.84375 -1.140625 0.914062 -0.867188 1.0625 -0.671875 Z M 1.0625 -0.671875 "/></g></g></g><g fill="#332c54" fill-opacity="1"><g transform="translate(89.188267, 31.863357)"><g><path d="M 2.546875 -0.75 C 2.585938 -0.394531 2.660156 -0.144531 2.765625 0 L 2.109375 0 C 2.035156 -0.195312 1.988281 -0.421875 1.96875 -0.671875 C 1.925781 -1.003906 1.789062 -1.179688 1.5625 -1.203125 C 1.507812 -1.203125 1.429688 -1.203125 1.328125 -1.203125 L 0.984375 -1.203125 L 0.984375 0 L 0.390625 0 L 0.390625 -2.984375 L 1.46875 -2.984375 C 1.632812 -2.984375 1.78125 -2.976562 1.90625 -2.96875 C 2.144531 -2.9375 2.332031 -2.851562 2.46875 -2.71875 C 2.613281 -2.59375 2.6875 -2.410156 2.6875 -2.171875 C 2.6875 -1.984375 2.632812 -1.828125 2.53125 -1.703125 C 2.425781 -1.585938 2.285156 -1.503906 2.109375 -1.453125 C 2.367188 -1.347656 2.515625 -1.113281 2.546875 -0.75 Z M 0.984375 -1.65625 L 1.390625 -1.65625 C 1.515625 -1.65625 1.597656 -1.65625 1.640625 -1.65625 C 1.921875 -1.675781 2.0625 -1.816406 2.0625 -2.078125 C 2.0625 -2.210938 2.023438 -2.3125 1.953125 -2.375 C 1.890625 -2.445312 1.796875 -2.488281 1.671875 -2.5 C 1.597656 -2.507812 1.515625 -2.515625 1.421875 -2.515625 L 0.984375 -2.515625 Z M 0.984375 -1.65625 "/></g></g></g><g fill="#332c54" fill-opacity="1"><g transform="translate(93.216702, 31.863357)"><g><path d="M 2.546875 -0.46875 L 2.546875 0 L 0.390625 0 L 0.390625 -2.984375 L 2.5 -2.984375 L 2.5 -2.515625 L 0.984375 -2.515625 L 0.984375 -1.734375 L 2.390625 -1.734375 L 2.390625 -1.265625 L 0.984375 -1.265625 L 0.984375 -0.46875 Z M 2.546875 -0.46875 "/></g></g></g><g fill="#332c54" fill-opacity="1"><g transform="translate(51.554077, 24.971955)"><g><path d="M 6.734375 -6.28125 L 3 -6.28125 L 3 -5.15625 L 6.4375 -5.15625 L 6.4375 -3.15625 L 3 -3.15625 L 3 -2 L 6.828125 -2 L 6.6875 0 L 0.703125 0 L 0.703125 -8.28125 L 6.734375 -8.28125 Z M 6.734375 -6.28125 "/></g></g></g><g fill="#332c54" fill-opacity="1"><g transform="translate(61.398558, 24.971955)"><g><path d="M 8.296875 -1.640625 C 7.941406 -1.078125 7.453125 -0.640625 6.828125 -0.328125 C 6.203125 -0.0234375 5.507812 0.125 4.75 0.125 C 3.820312 0.125 3.023438 -0.0351562 2.359375 -0.359375 C 1.691406 -0.679688 1.179688 -1.148438 0.828125 -1.765625 C 0.484375 -2.378906 0.3125 -3.113281 0.3125 -3.96875 C 0.3125 -4.851562 0.503906 -5.625 0.890625 -6.28125 C 1.273438 -6.945312 1.8125 -7.460938 2.5 -7.828125 C 3.195312 -8.203125 4.003906 -8.390625 4.921875 -8.390625 C 5.722656 -8.390625 6.398438 -8.25 6.953125 -7.96875 C 7.503906 -7.6875 7.957031 -7.25 8.3125 -6.65625 L 6.546875 -5.40625 C 6.398438 -5.695312 6.171875 -5.925781 5.859375 -6.09375 C 5.546875 -6.257812 5.207031 -6.34375 4.84375 -6.34375 C 4.15625 -6.351562 3.625 -6.140625 3.25 -5.703125 C 2.875 -5.273438 2.6875 -4.710938 2.6875 -4.015625 C 2.6875 -3.359375 2.859375 -2.84375 3.203125 -2.46875 C 3.546875 -2.101562 4.066406 -1.921875 4.765625 -1.921875 C 5.578125 -1.921875 6.179688 -2.269531 6.578125 -2.96875 Z M 8.296875 -1.640625 "/></g></g></g><g fill="#332c54" fill-opacity="1"><g transform="translate(72.384693, 24.971955)"><g><path d="M 4.609375 0.109375 C 3.722656 0.117188 2.957031 -0.0351562 2.3125 -0.359375 C 1.664062 -0.679688 1.171875 -1.148438 0.828125 -1.765625 C 0.484375 -2.378906 0.3125 -3.117188 0.3125 -3.984375 C 0.3125 -4.867188 0.5 -5.640625 0.875 -6.296875 C 1.25 -6.960938 1.769531 -7.476562 2.4375 -7.84375 C 3.101562 -8.207031 3.882812 -8.390625 4.78125 -8.390625 C 5.59375 -8.390625 6.300781 -8.21875 6.90625 -7.875 C 7.519531 -7.53125 7.992188 -7.050781 8.328125 -6.4375 C 8.671875 -5.832031 8.84375 -5.117188 8.84375 -4.296875 C 8.84375 -3.429688 8.664062 -2.664062 8.3125 -2 C 7.957031 -1.34375 7.460938 -0.828125 6.828125 -0.453125 C 6.191406 -0.078125 5.453125 0.109375 4.609375 0.109375 Z M 4.5625 -1.921875 C 5.15625 -1.921875 5.625 -2.128906 5.96875 -2.546875 C 6.320312 -2.972656 6.5 -3.539062 6.5 -4.25 C 6.5 -4.882812 6.332031 -5.394531 6 -5.78125 C 5.675781 -6.164062 5.238281 -6.359375 4.6875 -6.359375 C 4.28125 -6.359375 3.925781 -6.257812 3.625 -6.0625 C 3.320312 -5.863281 3.085938 -5.585938 2.921875 -5.234375 C 2.753906 -4.890625 2.671875 -4.492188 2.671875 -4.046875 C 2.671875 -3.378906 2.835938 -2.859375 3.171875 -2.484375 C 3.503906 -2.109375 3.96875 -1.921875 4.5625 -1.921875 Z M 4.5625 -1.921875 "/></g></g></g><g fill="#332c54" fill-opacity="1"><g transform="translate(84.454232, 24.971955)"><g><path d="M 0.71875 0 L 0.96875 -8.28125 L 2.875 -8.28125 L 5.640625 -2.875 L 8.375 -8.28125 L 10.265625 -8.28125 L 10.4375 0 L 8.1875 0 L 8.125 -3.46875 L 6.359375 0 L 4.71875 0 L 2.953125 -3.40625 L 2.859375 0 Z M 0.71875 0 "/></g></g></g></svg>