<svg xmlns="http://www.w3.org/2000/svg" xmlns:xlink="http://www.w3.org/1999/xlink" width="130" zoomAndPan="magnify" viewBox="0 0 97.5 41.25" height="55" preserveAspectRatio="xMidYMid meet" version="1.0"><defs><g/><clipPath id="236d0e9c8c"><path d="M 2.097656 0.691406 L 45.558594 0.691406 L 45.558594 40.46875 L 2.097656 40.46875 Z M 2.097656 0.691406 " clip-rule="nonzero"/></clipPath></defs><g clip-path="url(#236d0e9c8c)"><path fill="#8c52ff" d="M 33.636719 38.339844 C 25.984375 42.542969 18.761719 40.605469 18.761719 32.199219 L 18.761719 10.074219 C 18.761719 4.898438 16.394531 2.53125 13.160156 2.855469 C 20.8125 -1.351562 28.03125 0.589844 28.03125 8.996094 L 28.03125 31.121094 C 28.03125 36.292969 30.402344 38.664062 33.636719 38.339844 Z M 11.367188 27.53125 L 11.367188 10.144531 C 11.367188 9.839844 11.335938 9.539062 11.277344 9.242188 C 11.21875 8.941406 11.128906 8.652344 11.011719 8.371094 C 10.894531 8.089844 10.753906 7.824219 10.585938 7.570312 C 10.414062 7.316406 10.222656 7.082031 10.007812 6.867188 C 9.792969 6.652344 9.558594 6.460938 9.304688 6.292969 C 9.054688 6.125 8.785156 5.980469 8.503906 5.863281 C 8.222656 5.746094 7.933594 5.660156 7.636719 5.601562 C 7.335938 5.542969 7.035156 5.511719 6.730469 5.511719 C 6.429688 5.511719 6.125 5.539062 5.828125 5.601562 C 5.53125 5.660156 5.238281 5.746094 4.957031 5.863281 C 4.679688 5.980469 4.410156 6.121094 4.15625 6.292969 C 3.90625 6.460938 3.671875 6.652344 3.457031 6.867188 C 3.242188 7.082031 3.046875 7.316406 2.878906 7.570312 C 2.710938 7.824219 2.566406 8.089844 2.449219 8.371094 C 2.335938 8.652344 2.246094 8.941406 2.1875 9.242188 C 2.128906 9.539062 2.097656 9.839844 2.097656 10.144531 L 2.097656 28.605469 C 2.097656 37.011719 9.316406 38.953125 16.96875 34.75 C 13.734375 35.074219 11.367188 32.703125 11.367188 27.53125 Z M 30.332031 7.050781 C 33.5625 6.726562 35.933594 9.097656 35.933594 14.269531 L 35.933594 31.65625 C 35.933594 31.957031 35.964844 32.261719 36.023438 32.558594 C 36.082031 32.855469 36.171875 33.148438 36.285156 33.425781 C 36.402344 33.707031 36.546875 33.976562 36.714844 34.230469 C 36.882812 34.480469 37.078125 34.714844 37.292969 34.929688 C 37.507812 35.144531 37.742188 35.339844 37.992188 35.507812 C 38.246094 35.675781 38.515625 35.820312 38.792969 35.9375 C 39.074219 36.050781 39.367188 36.140625 39.664062 36.199219 C 39.960938 36.257812 40.265625 36.289062 40.566406 36.289062 C 40.871094 36.289062 41.171875 36.257812 41.472656 36.199219 C 41.769531 36.140625 42.058594 36.050781 42.339844 35.9375 C 42.621094 35.820312 42.890625 35.675781 43.140625 35.507812 C 43.394531 35.339844 43.628906 35.144531 43.84375 34.929688 C 44.058594 34.714844 44.25 34.480469 44.421875 34.230469 C 44.589844 33.976562 44.730469 33.707031 44.847656 33.425781 C 44.964844 33.148438 45.054688 32.855469 45.113281 32.558594 C 45.171875 32.261719 45.203125 31.957031 45.203125 31.65625 L 45.203125 13.191406 C 45.203125 4.785156 37.984375 2.847656 30.332031 7.050781 Z M 30.332031 7.050781 " fill-opacity="1" fill-rule="nonzero"/></g><g fill="#8c52ff" fill-opacity="1"><g transform="translate(51.296527, 31.863357)"><g><path d="M 1.703125 -3.046875 C 2.148438 -3.046875 2.503906 -2.90625 2.765625 -2.625 C 3.035156 -2.34375 3.171875 -1.96875 3.171875 -1.5 C 3.171875 -1.019531 3.035156 -0.640625 2.765625 -0.359375 C 2.503906 -0.078125 2.144531 0.0625 1.6875 0.0625 C 1.238281 0.0625 0.878906 -0.078125 0.609375 -0.359375 C 0.347656 -0.640625 0.21875 -1.019531 0.21875 -1.5 C 0.21875 -1.96875 0.347656 -2.34375 0.609375 -2.625 C 0.878906 -2.90625 1.242188 -3.046875 1.703125 -3.046875 Z M 1.0625 -0.671875 C 1.21875 -0.484375 1.425781 -0.390625 1.6875 -0.390625 C 1.957031 -0.390625 2.164062 -0.484375 2.3125 -0.671875 C 2.46875 -0.867188 2.546875 -1.144531 2.546875 -1.5 C 2.546875 -1.84375 2.46875 -2.109375 2.3125 -2.296875 C 2.164062 -2.492188 1.960938 -2.59375 1.703125 -2.59375 C 1.429688 -2.59375 1.21875 -2.492188 1.0625 -2.296875 C 0.914062 -2.109375 0.84375 -1.835938 0.84375 -1.484375 C 0.84375 -1.140625 0.914062 -0.867188 1.0625 -0.671875 Z M 1.0625 -0.671875 "/></g></g></g><g fill="#8c52ff" fill-opacity="1"><g transform="translate(55.805215, 31.863357)"><g><path d="M 3.015625 0 L 2.1875 0 L 0.953125 -2.265625 C 0.972656 -1.992188 0.984375 -1.6875 0.984375 -1.34375 L 0.984375 0 L 0.390625 0 L 0.390625 -2.984375 L 1.171875 -2.984375 L 2.4375 -0.671875 C 2.414062 -0.941406 2.40625 -1.253906 2.40625 -1.609375 L 2.40625 -2.984375 L 3 -2.984375 Z M 3.015625 0 "/></g></g></g><g fill="#8c52ff" fill-opacity="1"><g transform="translate(60.292271, 31.863357)"><g><path d="M 2.546875 -0.5 L 2.546875 0 L 0.390625 0 L 0.390625 -2.984375 L 0.984375 -2.984375 L 0.984375 -0.5 Z M 2.546875 -0.5 "/></g></g></g><g fill="#8c52ff" fill-opacity="1"><g transform="translate(64.104375, 31.863357)"><g><path d="M 0.984375 0 L 0.390625 0 L 0.390625 -2.984375 L 0.984375 -2.984375 Z M 0.984375 0 "/></g></g></g><g fill="#8c52ff" fill-opacity="1"><g transform="translate(66.56658, 31.863357)"><g><path d="M 3.015625 0 L 2.1875 0 L 0.953125 -2.265625 C 0.972656 -1.992188 0.984375 -1.6875 0.984375 -1.34375 L 0.984375 0 L 0.390625 0 L 0.390625 -2.984375 L 1.171875 -2.984375 L 2.4375 -0.671875 C 2.414062 -0.941406 2.40625 -1.253906 2.40625 -1.609375 L 2.40625 -2.984375 L 3 -2.984375 Z M 3.015625 0 "/></g></g></g><g fill="#8c52ff" fill-opacity="1"><g transform="translate(71.053635, 31.863357)"><g><path d="M 2.546875 -0.46875 L 2.546875 0 L 0.390625 0 L 0.390625 -2.984375 L 2.5 -2.984375 L 2.5 -2.515625 L 0.984375 -2.515625 L 0.984375 -1.734375 L 2.390625 -1.734375 L 2.390625 -1.265625 L 0.984375 -1.265625 L 0.984375 -0.46875 Z M 2.546875 -0.46875 "/></g></g></g><g fill="#8c52ff" fill-opacity="1"><g transform="translate(74.917658, 31.863357)"><g/></g></g><g fill="#8c52ff" fill-opacity="1"><g transform="translate(76.955853, 31.863357)"><g><path d="M 1.375 -3.046875 C 1.71875 -3.046875 1.976562 -2.957031 2.15625 -2.78125 C 2.332031 -2.613281 2.441406 -2.390625 2.484375 -2.109375 L 1.875 -2.109375 C 1.851562 -2.265625 1.796875 -2.382812 1.703125 -2.46875 C 1.617188 -2.550781 1.503906 -2.59375 1.359375 -2.59375 C 1.234375 -2.59375 1.128906 -2.5625 1.046875 -2.5 C 0.972656 -2.445312 0.9375 -2.363281 0.9375 -2.25 C 0.9375 -2.125 0.984375 -2.023438 1.078125 -1.953125 C 1.171875 -1.878906 1.335938 -1.8125 1.578125 -1.75 C 1.898438 -1.675781 2.132812 -1.5625 2.28125 -1.40625 C 2.4375 -1.257812 2.515625 -1.066406 2.515625 -0.828125 C 2.515625 -0.554688 2.40625 -0.335938 2.1875 -0.171875 C 1.976562 -0.015625 1.722656 0.0625 1.421875 0.0625 C 1.054688 0.0625 0.765625 -0.015625 0.546875 -0.171875 C 0.328125 -0.335938 0.207031 -0.578125 0.1875 -0.890625 L 0.796875 -0.890625 C 0.828125 -0.722656 0.894531 -0.597656 1 -0.515625 C 1.113281 -0.429688 1.25 -0.390625 1.40625 -0.390625 C 1.550781 -0.390625 1.671875 -0.421875 1.765625 -0.484375 C 1.859375 -0.554688 1.90625 -0.648438 1.90625 -0.765625 C 1.90625 -0.890625 1.859375 -0.988281 1.765625 -1.0625 C 1.671875 -1.144531 1.515625 -1.210938 1.296875 -1.265625 C 0.960938 -1.347656 0.710938 -1.453125 0.546875 -1.578125 C 0.390625 -1.710938 0.3125 -1.910156 0.3125 -2.171875 C 0.3125 -2.441406 0.414062 -2.65625 0.625 -2.8125 C 0.832031 -2.96875 1.082031 -3.046875 1.375 -3.046875 Z M 1.375 -3.046875 "/></g></g></g><g fill="#8c52ff" fill-opacity="1"><g transform="translate(80.785267, 31.863357)"><g><path d="M 2.71875 -2.515625 L 1.703125 -2.515625 L 1.703125 0 L 1.109375 0 L 1.109375 -2.515625 L 0.09375 -2.515625 L 0.09375 -2.984375 L 2.71875 -2.984375 Z M 2.71875 -2.515625 "/></g></g></g><g fill="#8c52ff" fill-opacity="1"><g transform="translate(84.679581, 31.863357)"><g><path d="M 1.703125 -3.046875 C 2.148438 -3.046875 2.503906 -2.90625 2.765625 -2.625 C 3.035156 -2.34375 3.171875 -1.96875 3.171875 -1.5 C 3.171875 -1.019531 3.035156 -0.640625 2.765625 -0.359375 C 2.503906 -0.078125 2.144531 0.0625 1.6875 0.0625 C 1.238281 0.0625 0.878906 -0.078125 0.609375 -0.359375 C 0.347656 -0.640625 0.21875 -1.019531 0.21875 -1.5 C 0.21875 -1.96875 0.347656 -2.34375 0.609375 -2.625 C 0.878906 -2.90625 1.242188 -3.046875 1.703125 -3.046875 Z M 1.0625 -0.671875 C 1.21875 -0.484375 1.425781 -0.390625 1.6875 -0.390625 C 1.957031 -0.390625 2.164062 -0.484375 2.3125 -0.671875 C 2.46875 -0.867188 2.546875 -1.144531 2.546875 -1.5 C 2.546875 -1.84375 2.46875 -2.109375 2.3125 -2.296875 C 2.164062 -2.492188 1.960938 -2.59375 1.703125 -2.59375 C 1.429688 -2.59375 1.21875 -2.492188 1.0625 -2.296875 C 0.914062 -2.109375 0.84375 -1.835938 0.84375 -1.484375 C 0.84375 -1.140625 0.914062 -0.867188 1.0625 -0.671875 Z M 1.0625 -0.671875 "/></g></g></g><g fill="#8c52ff" fill-opacity="1"><g transform="translate(89.188267, 31.863357)"><g><path d="M 2.546875 -0.75 C 2.585938 -0.394531 2.660156 -0.144531 2.765625 0 L 2.109375 0 C 2.035156 -0.195312 1.988281 -0.421875 1.96875 -0.671875 C 1.925781 -1.003906 1.789062 -1.179688 1.5625 -1.203125 C 1.507812 -1.203125 1.429688 -1.203125 1.328125 -1.203125 L 0.984375 -1.203125 L 0.984375 0 L 0.390625 0 L 0.390625 -2.984375 L 1.46875 -2.984375 C 1.632812 -2.984375 1.78125 -2.976562 1.90625 -2.96875 C 2.144531 -2.9375 2.332031 -2.851562 2.46875 -2.71875 C 2.613281 -2.59375 2.6875 -2.410156 2.6875 -2.171875 C 2.6875 -1.984375 2.632812 -1.828125 2.53125 -1.703125 C 2.425781 -1.585938 2.285156 -1.503906 2.109375 -1.453125 C 2.367188 -1.347656 2.515625 -1.113281 2.546875 -0.75 Z M 0.984375 -1.65625 L 1.390625 -1.65625 C 1.515625 -1.65625 1.597656 -1.65625 1.640625 -1.65625 C 1.921875 -1.675781 2.0625 -1.816406 2.0625 -2.078125 C 2.0625 -2.210938 2.023438 -2.3125 1.953125 -2.375 C 1.890625 -2.445312 1.796875 -2.488281 1.671875 -2.5 C 1.597656 -2.507812 1.515625 -2.515625 1.421875 -2.515625 L 0.984375 -2.515625 Z M 0.984375 -1.65625 "/></g></g></g><g fill="#8c52ff" fill-opacity="1"><g transform="translate(93.216702, 31.863357)"><g><path d="M 2.546875 -0.46875 L 2.546875 0 L 0.390625 0 L 0.390625 -2.984375 L 2.5 -2.984375 L 2.5 -2.515625 L 0.984375 -2.515625 L 0.984375 -1.734375 L 2.390625 -1.734375 L 2.390625 -1.265625 L 0.984375 -1.265625 L 0.984375 -0.46875 Z M 2.546875 -0.46875 "/></g></g></g><g fill="#8c52ff" fill-opacity="1"><g transform="translate(51.554077, 24.971955)"><g><path d="M 6.734375 -6.28125 L 3 -6.28125 L 3 -5.15625 L 6.4375 -5.15625 L 6.4375 -3.15625 L 3 -3.15625 L 3 -2 L 6.828125 -2 L 6.6875 0 L 0.703125 0 L 0.703125 -8.28125 L 6.734375 -8.28125 Z M 6.734375 -6.28125 "/></g></g></g><g fill="#8c52ff" fill-opacity="1"><g transform="translate(61.398558, 24.971955)"><g><path d="M 8.296875 -1.640625 C 7.941406 -1.078125 7.453125 -0.640625 6.828125 -0.328125 C 6.203125 -0.0234375 5.507812 0.125 4.75 0.125 C 3.820312 0.125 3.023438 -0.0351562 2.359375 -0.359375 C 1.691406 -0.679688 1.179688 -1.148438 0.828125 -1.765625 C 0.484375 -2.378906 0.3125 -3.113281 0.3125 -3.96875 C 0.3125 -4.851562 0.503906 -5.625 0.890625 -6.28125 C 1.273438 -6.945312 1.8125 -7.460938 2.5 -7.828125 C 3.195312 -8.203125 4.003906 -8.390625 4.921875 -8.390625 C 5.722656 -8.390625 6.398438 -8.25 6.953125 -7.96875 C 7.503906 -7.6875 7.957031 -7.25 8.3125 -6.65625 L 6.546875 -5.40625 C 6.398438 -5.695312 6.171875 -5.925781 5.859375 -6.09375 C 5.546875 -6.257812 5.207031 -6.34375 4.84375 -6.34375 C 4.15625 -6.351562 3.625 -6.140625 3.25 -5.703125 C 2.875 -5.273438 2.6875 -4.710938 2.6875 -4.015625 C 2.6875 -3.359375 2.859375 -2.84375 3.203125 -2.46875 C 3.546875 -2.101562 4.066406 -1.921875 4.765625 -1.921875 C 5.578125 -1.921875 6.179688 -2.269531 6.578125 -2.96875 Z M 8.296875 -1.640625 "/></g></g></g><g fill="#8c52ff" fill-opacity="1"><g transform="translate(72.384693, 24.971955)"><g><path d="M 4.609375 0.109375 C 3.722656 0.117188 2.957031 -0.0351562 2.3125 -0.359375 C 1.664062 -0.679688 1.171875 -1.148438 0.828125 -1.765625 C 0.484375 -2.378906 0.3125 -3.117188 0.3125 -3.984375 C 0.3125 -4.867188 0.5 -5.640625 0.875 -6.296875 C 1.25 -6.960938 1.769531 -7.476562 2.4375 -7.84375 C 3.101562 -8.207031 3.882812 -8.390625 4.78125 -8.390625 C 5.59375 -8.390625 6.300781 -8.21875 6.90625 -7.875 C 7.519531 -7.53125 7.992188 -7.050781 8.328125 -6.4375 C 8.671875 -5.832031 8.84375 -5.117188 8.84375 -4.296875 C 8.84375 -3.429688 8.664062 -2.664062 8.3125 -2 C 7.957031 -1.34375 7.460938 -0.828125 6.828125 -0.453125 C 6.191406 -0.078125 5.453125 0.109375 4.609375 0.109375 Z M 4.5625 -1.921875 C 5.15625 -1.921875 5.625 -2.128906 5.96875 -2.546875 C 6.320312 -2.972656 6.5 -3.539062 6.5 -4.25 C 6.5 -4.882812 6.332031 -5.394531 6 -5.78125 C 5.675781 -6.164062 5.238281 -6.359375 4.6875 -6.359375 C 4.28125 -6.359375 3.925781 -6.257812 3.625 -6.0625 C 3.320312 -5.863281 3.085938 -5.585938 2.921875 -5.234375 C 2.753906 -4.890625 2.671875 -4.492188 2.671875 -4.046875 C 2.671875 -3.378906 2.835938 -2.859375 3.171875 -2.484375 C 3.503906 -2.109375 3.96875 -1.921875 4.5625 -1.921875 Z M 4.5625 -1.921875 "/></g></g></g><g fill="#8c52ff" fill-opacity="1"><g transform="translate(84.454232, 24.971955)"><g><path d="M 0.71875 0 L 0.96875 -8.28125 L 2.875 -8.28125 L 5.640625 -2.875 L 8.375 -8.28125 L 10.265625 -8.28125 L 10.4375 0 L 8.1875 0 L 8.125 -3.46875 L 6.359375 0 L 4.71875 0 L 2.953125 -3.40625 L 2.859375 0 Z M 0.71875 0 "/></g></g></g></svg>