<svg xmlns="http://www.w3.org/2000/svg" xmlns:xlink="http://www.w3.org/1999/xlink" width="500" zoomAndPan="magnify" viewBox="0 0 375 374.999991" height="500" preserveAspectRatio="xMidYMid meet" version="1.0"><defs><clipPath id="f621ae7dd8"><path d="M 9.125 22.746094 L 366 22.746094 L 366 351.996094 L 9.125 351.996094 Z M 9.125 22.746094 " clip-rule="nonzero"/></clipPath></defs><g clip-path="url(#f621ae7dd8)"><path fill="#8c52ff" d="M 270.144531 334.363281 C 206.820312 369.144531 147.050781 353.089844 147.050781 283.519531 L 147.050781 100.394531 C 147.050781 57.582031 127.445312 37.964844 100.6875 40.648438 C 164.011719 5.828125 223.769531 21.914062 223.769531 91.476562 L 223.769531 274.605469 C 223.769531 317.414062 243.386719 337.039062 270.144531 334.363281 Z M 85.824219 244.875 L 85.824219 100.988281 C 85.824219 99.734375 85.761719 98.480469 85.636719 97.230469 C 85.515625 95.980469 85.332031 94.738281 85.085938 93.507812 C 84.839844 92.277344 84.535156 91.058594 84.171875 89.855469 C 83.808594 88.65625 83.382812 87.472656 82.902344 86.3125 C 82.421875 85.152344 81.886719 84.019531 81.292969 82.914062 C 80.703125 81.804688 80.058594 80.730469 79.359375 79.683594 C 78.664062 78.640625 77.914062 77.632812 77.117188 76.660156 C 76.320312 75.691406 75.480469 74.761719 74.589844 73.875 C 73.703125 72.984375 72.773438 72.144531 71.804688 71.347656 C 70.832031 70.550781 69.824219 69.800781 68.78125 69.105469 C 67.734375 68.40625 66.660156 67.761719 65.550781 67.171875 C 64.445312 66.578125 63.3125 66.042969 62.152344 65.5625 C 60.992188 65.082031 59.808594 64.65625 58.609375 64.292969 C 57.40625 63.929688 56.1875 63.625 54.957031 63.378906 C 53.726562 63.132812 52.484375 62.949219 51.234375 62.828125 C 49.984375 62.703125 48.730469 62.640625 47.476562 62.640625 C 46.21875 62.640625 44.96875 62.703125 43.71875 62.828125 C 42.46875 62.949219 41.226562 63.132812 39.996094 63.378906 C 38.761719 63.621094 37.546875 63.925781 36.34375 64.292969 C 35.140625 64.65625 33.960938 65.078125 32.800781 65.558594 C 31.640625 66.039062 30.503906 66.574219 29.398438 67.167969 C 28.289062 67.761719 27.214844 68.40625 26.167969 69.101562 C 25.125 69.800781 24.117188 70.546875 23.144531 71.34375 C 22.175781 72.140625 21.246094 72.984375 20.355469 73.871094 C 19.46875 74.757812 18.625 75.6875 17.828125 76.660156 C 17.03125 77.628906 16.285156 78.636719 15.585938 79.683594 C 14.890625 80.726562 14.246094 81.800781 13.652344 82.910156 C 13.058594 84.019531 12.523438 85.152344 12.042969 86.3125 C 11.5625 87.472656 11.140625 88.652344 10.773438 89.855469 C 10.410156 91.058594 10.105469 92.273438 9.859375 93.507812 C 9.617188 94.738281 9.429688 95.980469 9.308594 97.230469 C 9.183594 98.480469 9.125 99.730469 9.125 100.988281 L 9.125 253.792969 C 9.125 323.363281 68.875 339.414062 132.199219 304.632812 C 105.445312 307.308594 85.824219 287.6875 85.824219 244.875 Z M 242.792969 75.375 C 269.550781 72.699219 289.167969 92.324219 289.167969 135.128906 L 289.167969 279.015625 C 289.167969 280.269531 289.230469 281.523438 289.351562 282.773438 C 289.476562 284.023438 289.660156 285.265625 289.902344 286.496094 C 290.148438 287.730469 290.453125 288.945312 290.820312 290.148438 C 291.183594 291.351562 291.605469 292.53125 292.085938 293.691406 C 292.566406 294.851562 293.105469 295.984375 293.695312 297.09375 C 294.289062 298.203125 294.933594 299.277344 295.628906 300.324219 C 296.328125 301.367188 297.074219 302.375 297.871094 303.34375 C 298.667969 304.316406 299.511719 305.246094 300.398438 306.132812 C 301.289062 307.023438 302.21875 307.863281 303.1875 308.660156 C 304.160156 309.457031 305.167969 310.207031 306.210938 310.902344 C 307.257812 311.601562 308.332031 312.246094 309.441406 312.839844 C 310.546875 313.429688 311.683594 313.96875 312.84375 314.449219 C 314.003906 314.929688 315.183594 315.351562 316.386719 315.714844 C 317.589844 316.082031 318.804688 316.386719 320.039062 316.628906 C 321.269531 316.875 322.511719 317.058594 323.761719 317.183594 C 325.011719 317.304688 326.265625 317.367188 327.519531 317.367188 C 328.777344 317.367188 330.027344 317.304688 331.277344 317.183594 C 332.527344 317.058594 333.769531 316.875 335 316.628906 C 336.234375 316.386719 337.449219 316.082031 338.652344 315.714844 C 339.855469 315.351562 341.035156 314.929688 342.195312 314.449219 C 343.355469 313.96875 344.488281 313.429688 345.597656 312.839844 C 346.707031 312.246094 347.78125 311.601562 348.824219 310.902344 C 349.871094 310.207031 350.878906 309.457031 351.847656 308.660156 C 352.820312 307.863281 353.75 307.023438 354.636719 306.132812 C 355.523438 305.246094 356.367188 304.316406 357.164062 303.34375 C 357.960938 302.375 358.707031 301.367188 359.40625 300.320312 C 360.101562 299.277344 360.75 298.203125 361.339844 297.09375 C 361.933594 295.984375 362.46875 294.851562 362.949219 293.691406 C 363.429688 292.53125 363.851562 291.347656 364.214844 290.148438 C 364.582031 288.945312 364.886719 287.726562 365.128906 286.496094 C 365.375 285.265625 365.558594 284.023438 365.683594 282.773438 C 365.804688 281.523438 365.867188 280.269531 365.867188 279.015625 L 365.867188 126.210938 C 365.867188 56.648438 306.140625 40.59375 242.792969 75.375 Z M 242.792969 75.375 " fill-opacity="1" fill-rule="nonzero"/></g></svg>